<?xml version="1.0" standalone="no"?>
<!DOCTYPE svg PUBLIC "-//W3C//DTD SVG 20010904//EN"
 "http://www.w3.org/TR/2001/REC-SVG-20010904/DTD/svg10.dtd">
<svg version="1.0" xmlns="http://www.w3.org/2000/svg"
 width="48.000000pt" height="48.000000pt" 
 viewBox="0 0 48.000000 48.000000"
 preserveAspectRatio="xMidYMid meet">

<g transform="translate(0.000000,48.000000) scale(0.100000,-0.100000)"
fill="#000000" stroke="none">
<path d="M100 392 c0 -13 -9 -22 -25 -26 -28 -7 -25 -26 5 -26 11 0 20 -9 23
-22 l4 -23 8 22 c4 11 16 24 27 26 22 6 16 27 -8 27 -8 0 -14 6 -14 14 0 8 -4
18 -10 21 -5 3 -10 -3 -10 -13z"/>
<path d="M260 375 c-5 -14 -13 -37 -16 -50 -7 -29 -17 -37 -64 -55 -56 -21
-56 -28 1 -53 52 -23 55 -27 72 -80 10 -32 21 -57 26 -57 4 0 15 25 25 56 17
53 21 58 67 77 27 12 49 25 49 30 0 4 -22 17 -48 28 -45 19 -50 24 -66 75 -19
59 -31 67 -46 29z m35 -66 c5 -24 16 -35 48 -48 l42 -18 -37 -13 c-29 -11 -40
-22 -49 -49 -17 -54 -24 -56 -38 -11 -10 33 -20 45 -49 57 l-37 16 38 16 c29
12 40 24 49 53 13 43 23 42 33 -3z"/>
<path d="M150 115 c0 -8 -8 -15 -17 -15 -14 0 -12 -4 7 -22 16 -15 25 -18 28
-10 2 7 10 12 18 12 19 0 18 6 -6 30 -24 24 -30 25 -30 5z"/>
</g>
</svg>
