<?xml version="1.0" standalone="no"?>
<!DOCTYPE svg PUBLIC "-//W3C//DTD SVG 20010904//EN"
 "http://www.w3.org/TR/2001/REC-SVG-20010904/DTD/svg10.dtd">
<svg version="1.0" xmlns="http://www.w3.org/2000/svg"
 width="500.000000pt" height="500.000000pt" viewBox="0 0 500.000000 500.000000"
 preserveAspectRatio="xMidYMid meet">

<g transform="translate(0.000000,500.000000) scale(0.100000,-0.100000)"
fill="#000000" stroke="none">
<path d="M2310 3865 c-372 -80 -608 -334 -705 -760 -58 -249 -59 -617 -3 -795
31 -100 115 -239 140 -232 5 1 7 -1 4 -6 -12 -20 145 -139 166 -126 6 4 8 3 5
-3 -8 -12 59 -37 74 -27 7 4 9 3 5 -4 -4 -6 26 -18 82 -31 242 -57 624 -55
858 4 286 72 449 262 494 576 18 123 8 421 -19 564 -24 130 -58 254 -74 273
-6 8 -12 23 -14 34 -6 39 -74 154 -138 235 -110 140 -260 239 -430 284 -104
27 -348 35 -445 14z m910 -365 c6 -11 8 -20 6 -20 -3 0 -10 9 -16 20 -6 11 -8
20 -6 20 3 0 10 -9 16 -20z"/>
<path d="M2290 1505 c-99 -14 -134 -21 -258 -57 -51 -15 -69 -24 -60 -31 10
-6 9 -8 -4 -4 -19 7 -119 -29 -130 -46 -4 -7 -8 -8 -8 -4 0 14 -152 -71 -245
-138 -141 -101 -255 -211 -375 -361 -50 -63 -130 -195 -124 -205 4 -7 3 -9 -3
-6 -10 6 -67 -107 -113 -223 -34 -86 -89 -295 -96 -366 l-7 -64 1632 0 1631 0
0 39 c0 97 -136 531 -161 515 -6 -3 -10 0 -8 7 3 27 -1 40 -11 34 -5 -3 -8 0
-5 7 7 17 -84 170 -96 162 -5 -3 -7 1 -4 8 7 18 -145 207 -231 288 -151 143
-366 292 -395 274 -7 -4 -9 -3 -6 3 8 12 -61 46 -75 37 -6 -4 -8 -2 -5 4 10
14 -158 75 -207 75 -21 0 -33 3 -27 6 14 9 -119 38 -231 51 -111 13 -262 11
-378 -5z"/>
</g>
</svg>