<?xml version="1.0" encoding="UTF-8"?>
<!DOCTYPE svg PUBLIC "-//W3C//DTD SVG 1.1//EN" 
"http://www.w3.org/Graphics/SVG/1.1/DTD/svg11.dtd">
<svg xmlns="http://www.w3.org/2000/svg" version="1.1" 
width="79px" height="61px" style="shape-rendering:geometricPrecision; 
text-rendering:geometricPrecision; image-rendering:optimizeQuality; 
fill-rule:evenodd; clip-rule:evenodd" xmlns:xlink="http://www.w3.org/1999/xlink">

<g><path style="opacity:0.063" fill="#e4f3fc" d="M 59.5,25.5 C 58.7042,21.3612 60.0375,18.1945 63.5,16C 62.1667,16 60.8333,16 59.5,16C 65.0115,12.0763 64.6781,10.9096 58.5,12.5C 56.4434,12.5643 54.7767,11.8976 53.5,10.5C 53.56,9.95691 53.8933,9.62358 54.5,9.5C 57.435,11.8907 60.435,11.8907 63.5,9.5C 64.8058,11.7158 65.3058,14.0492 65,16.5C 62.4239,19.1103 60.5906,22.1103 59.5,25.5 Z"/></g>
<g><path style="opacity:1" fill="#29a0ed" d="M 53.5,10.5 C 54.7767,11.8976 56.4434,12.5643 58.5,12.5C 64.6781,10.9096 65.0115,12.0763 59.5,16C 60.8333,16 62.1667,16 63.5,16C 60.0375,18.1945 58.7042,21.3612 59.5,25.5C 56.9661,37.3626 49.9661,45.0292 38.5,48.5C 34.1667,48.5 29.8333,48.5 25.5,48.5C 23.351,47.2638 21.0177,46.2638 18.5,45.5C 20.1667,44.8333 21.8333,44.1667 23.5,43.5C 24.209,42.596 25.209,42.2627 26.5,42.5C 28.1033,42.6882 29.4366,42.1882 30.5,41C 29.9056,40.5357 29.2389,40.369 28.5,40.5C 26.0269,38.8568 24.0269,36.6902 22.5,34C 23.5,33.6667 24.5,33.3333 25.5,33C 21.1837,31.194 19.3503,28.0273 20,23.5C 20.7175,24.4506 21.5509,24.6172 22.5,24C 20.8288,22.1575 19.8288,19.9908 19.5,17.5C 19.0773,15.2188 19.744,13.5521 21.5,12.5C 22.5846,14.5869 24.2512,15.9202 26.5,16.5C 26.9731,17.9063 27.9731,18.573 29.5,18.5C 32.9196,20.2221 36.5863,20.8887 40.5,20.5C 40.9313,12.116 45.2646,8.78265 53.5,10.5 Z"/></g>
<g><path style="opacity:0.008" fill="#e8f5fd" d="M 21.5,12.5 C 23.7488,13.0798 25.4154,14.4131 26.5,16.5C 24.2512,15.9202 22.5846,14.5869 21.5,12.5 Z"/></g>
<g><path style="opacity:0.031" fill="#f3f9fe" d="M 26.5,16.5 C 28.0269,16.427 29.0269,17.0937 29.5,18.5C 27.9731,18.573 26.9731,17.9063 26.5,16.5 Z"/></g>
<g><path style="opacity:0.016" fill="#f7fbfe" d="M 19.5,17.5 C 19.8288,19.9908 20.8288,22.1575 22.5,24C 21.5509,24.6172 20.7175,24.4506 20,23.5C 19.3503,28.0273 21.1837,31.194 25.5,33C 24.5,33.3333 23.5,33.6667 22.5,34C 24.0269,36.6902 26.0269,38.8568 28.5,40.5C 26.0968,40.607 24.2635,39.607 23,37.5C 22.1145,34.2741 20.7812,31.2741 19,28.5C 18.8136,24.5058 18.9803,20.8391 19.5,17.5 Z"/></g>
<g><path style="opacity:0.043" fill="#f4fafe" d="M 28.5,40.5 C 29.2389,40.369 29.9056,40.5357 30.5,41C 29.4366,42.1882 28.1033,42.6882 26.5,42.5C 27.1667,41.8333 27.8333,41.1667 28.5,40.5 Z"/></g>
<g><path style="opacity:0.01" fill="#e6f4fd" d="M 23.5,43.5 C 21.8333,44.1667 20.1667,44.8333 18.5,45.5C 17.9569,45.44 17.6236,45.1067 17.5,44.5C 19.396,43.5344 21.396,43.2011 23.5,43.5 Z"/></g>
<g><path style="opacity:0.01" fill="#f5fafe" d="M 18.5,45.5 C 21.0177,46.2638 23.351,47.2638 25.5,48.5C 22.509,48.8337 20.1757,47.8337 18.5,45.5 Z"/></g>
<g><path style="opacity:0.025" fill="#f9fcfe" d="M 25.5,48.5 C 29.8333,48.5 34.1667,48.5 38.5,48.5C 34.2095,50.8734 29.8762,50.8734 25.5,48.5 Z"/></g>
</svg>
